# xmcd CD database file
#
# Track frame offsets:
#	150
#	21075
#	43075
#	61788
#	82585
#	98858
#	118635
#	136873
#	162963
#	182808
#	199688
#	215015
#	230805
#	250313
#	266243
#	288188
#	305568
#
# Disc length: 4338 seconds
#
# Revision: 2
# Processed by: cddbd v1.5.1PL0 Copyright (c) Steve Scherf et al.
# Submitted via: CDex 1.50Beta7
#
DISCID=f010f011
DTITLE=Celine Dion - Immaculate Collection
DYEAR=1900
DGENRE=
TTITLE0=Because You Loved Me
TTITLE1=Think Twice
TTITLE2=Beauty Ant The Beast
TTITLE3=Je Sais Pas
TTITLE4=Misled
TTITLE5=Falling Into You
TTITLE6=D'amour Ou D'amitie
TTITLE7=The Power Of Love
TTITLE8=When I Fall In Love
TTITLE9=(You Make Me Feel Like A) Natural Woman
TTITLE10=En Amour
TTITLE11=The Colour Of My Love
TTITLE12=Pour Que Tu M'aimes Encore
TTITLE13=Avec Toi
TTITLE14=Only The Road
TTITLE15=Seduces Me
TTITLE16=No Living Without You
EXTD=
EXTT0=
EXTT1=
EXTT2=
EXTT3=
EXTT4=
EXTT5=
EXTT6=
EXTT7=
EXTT8=
EXTT9=
EXTT10=
EXTT11=
EXTT12=
EXTT13=
EXTT14=
EXTT15=
EXTT16=
PLAYORDER=
